<?xml version="1.0" encoding="iso-8859-1"?>
<!-- Generator: Adobe Illustrator 19.0.0, SVG Export Plug-In . SVG Version: 6.00 Build 0)  -->
<svg version="1.1" id="Layer_1" xmlns="http://www.w3.org/2000/svg" xmlns:xlink="http://www.w3.org/1999/xlink" x="0px" y="0px"
	 viewBox="0 0 512.001 512.001" style="enable-background:new 0 0 512.001 512.001;" xml:space="preserve">
<circle style="fill:#999999;" cx="291.722" cy="295.861" r="206.056"/>
<path style="fill:#666666;" d="M207.564,380.024c-69.913-69.913-79.072-177.556-27.507-257.374
	c-12.055,7.788-23.482,16.949-34.041,27.507c-80.472,80.472-80.472,210.943,0,291.415s210.943,80.472,291.415,0
	c10.559-10.559,19.719-21.987,27.507-34.041C385.12,459.096,277.475,449.936,207.564,380.024z"/>
<path style="fill:#999999;" d="M178.119,123.9l-47.895-47.895c-11.349,7.525-22.109,16.262-32.101,26.254
	c-9.993,9.993-18.741,20.763-26.254,32.101l47.895,47.895"/>
<path style="fill:#808080;" d="M91.931,108.742c-7.453,8.122-14.146,16.691-20.063,25.617l47.897,47.895l22.84-22.84L91.931,108.742
	z"/>
<g>
	<path style="fill:#FFFFFF;" d="M268.953,476.918c-0.442,0-0.888-0.028-1.337-0.089c-47.78-6.332-90.47-30.936-120.209-69.283
		c-3.41-4.397-2.61-10.727,1.788-14.138c4.399-3.41,10.728-2.609,14.138,1.788c26.467,34.128,64.444,56.024,106.931,61.654
		c5.517,0.731,9.397,5.796,8.664,11.313C278.259,473.231,273.93,476.918,268.953,476.918z"/>
	<path style="fill:#FFFFFF;" d="M455.104,351.069c-0.888,0-1.792-0.118-2.691-0.367c-5.363-1.483-8.51-7.033-7.025-12.398
		c3.805-13.759,5.734-28.038,5.734-42.438c0-75.348-53.543-141.019-127.312-156.155c-5.452-1.119-8.964-6.445-7.845-11.896
		c1.118-5.451,6.448-8.957,11.896-7.846c83.1,17.049,143.413,91.024,143.413,175.897c0,16.215-2.174,32.301-6.464,47.809
		C463.577,348.14,459.522,351.069,455.104,351.069z"/>
	<circle style="fill:#FFFFFF;" cx="291.722" cy="126.388" r="10.076"/>
</g>
<path style="fill:#333333;" d="M291.722,79.728c-41.019,0-79.405,11.487-112.113,31.412l-42.261-42.261
	c-3.388-3.39-8.699-3.922-12.694-1.274c-10.451,6.93-20.337,14.804-29.459,23.447c-0.864-1.959-1.415-3.93-2.039-6.171
	c-1.74-6.249-3.907-14.025-13.114-23.232c-9.209-9.209-16.985-11.376-23.234-13.117c-5.182-1.444-8.928-2.488-14.393-7.954
	s-6.509-9.21-7.954-14.393C32.72,19.937,30.553,12.16,21.344,2.952c-3.935-3.937-10.316-3.935-14.249,0
	c-3.935,3.935-3.935,10.316,0,14.249c5.465,5.465,6.509,9.21,7.954,14.393c1.741,6.249,3.908,14.025,13.117,23.234
	S45.15,66.204,51.399,67.945c5.182,1.444,8.928,2.488,14.393,7.954c5.464,5.464,6.508,9.209,7.951,14.39
	c1.258,4.514,2.753,9.831,6.95,15.905c-6.231,7.161-12.003,14.718-17.225,22.598c-2.648,3.996-2.115,9.303,1.274,12.691L107,183.742
	c-19.927,32.709-31.417,71.098-31.417,112.121c0,119.179,96.958,216.138,216.137,216.138s216.138-96.958,216.138-216.138
	S410.901,79.728,291.722,79.728z M84.943,133.185c6.116-8.437,12.922-16.418,20.306-23.801c7.375-7.376,15.355-14.182,23.801-20.305
	l33.556,33.556c-16.734,12.504-31.601,27.372-44.107,44.104L84.943,133.185z M291.722,491.85
	c-108.066,0-195.984-87.918-195.984-195.985S183.656,99.881,291.722,99.881c108.068,0,195.985,87.918,195.985,195.985
	S399.789,491.85,291.722,491.85z"/>
<g>
</g>
<g>
</g>
<g>
</g>
<g>
</g>
<g>
</g>
<g>
</g>
<g>
</g>
<g>
</g>
<g>
</g>
<g>
</g>
<g>
</g>
<g>
</g>
<g>
</g>
<g>
</g>
<g>
</g>
</svg>
